<svg width="140" height="28" viewBox="0 0 140 28" fill="none" xmlns="http://www.w3.org/2000/svg">
<path d="M25.6667 11.7833C25.7834 11.2 25.3167 10.5 24.7334 10.5L18.0834 9.56668L15.05 3.50001C14.9334 3.26668 14.8167 3.15001 14.5834 3.03334C14 2.68334 13.3 2.91668 12.95 3.50001L10.0334 9.56668L3.38337 10.5C3.03337 10.5 2.80004 10.6167 2.68337 10.85C2.21671 11.3167 2.21671 12.0167 2.68337 12.4833L7.46671 17.15L6.30004 23.8C6.30004 24.0333 6.30004 24.2667 6.41671 24.5C6.76671 25.0833 7.46671 25.3167 8.05004 24.9667L14 21.8167L19.95 24.9667C20.0667 25.0833 20.3 25.0833 20.5334 25.0833H20.7667C21.35 24.9667 21.8167 24.3833 21.7 23.6833L20.5334 17.0333L25.3167 12.3667C25.55 12.25 25.6667 12.0167 25.6667 11.7833Z" fill="url(#paint0_linear_4002_41)"/>
<path d="M53.6667 11.7833C53.7834 11.2 53.3167 10.5 52.7334 10.5L46.0834 9.56668L43.05 3.50001C42.9334 3.26668 42.8167 3.15001 42.5834 3.03334C42 2.68334 41.3 2.91668 40.95 3.50001L38.0334 9.56668L31.3834 10.5C31.0334 10.5 30.8 10.6167 30.6834 10.85C30.2167 11.3167 30.2167 12.0167 30.6834 12.4833L35.4667 17.15L34.3 23.8C34.3 24.0333 34.3 24.2667 34.4167 24.5C34.7667 25.0833 35.4667 25.3167 36.05 24.9667L42 21.8167L47.95 24.9667C48.0667 25.0833 48.3 25.0833 48.5334 25.0833H48.7667C49.35 24.9667 49.8167 24.3833 49.7 23.6833L48.5334 17.0333L53.3167 12.3667C53.55 12.25 53.6667 12.0167 53.6667 11.7833Z" fill="url(#paint1_linear_4002_41)"/>
<path d="M81.6667 11.7833C81.7834 11.2 81.3167 10.5 80.7334 10.5L74.0834 9.56668L71.05 3.50001C70.9334 3.26668 70.8167 3.15001 70.5834 3.03334C70 2.68334 69.3 2.91668 68.95 3.50001L66.0334 9.56668L59.3834 10.5C59.0334 10.5 58.8 10.6167 58.6834 10.85C58.2167 11.3167 58.2167 12.0167 58.6834 12.4833L63.4667 17.15L62.3 23.8C62.3 24.0333 62.3 24.2667 62.4167 24.5C62.7667 25.0833 63.4667 25.3167 64.05 24.9667L70 21.8167L75.95 24.9667C76.0667 25.0833 76.3 25.0833 76.5334 25.0833H76.7667C77.35 24.9667 77.8167 24.3833 77.7 23.6833L76.5334 17.0333L81.3167 12.3667C81.55 12.25 81.6667 12.0167 81.6667 11.7833Z" fill="url(#paint2_linear_4002_41)"/>
<path d="M109.667 11.7833C109.783 11.2 109.317 10.5 108.733 10.5L102.083 9.56668L99.05 3.50001C98.9334 3.26668 98.8167 3.15001 98.5834 3.03334C98 2.68334 97.3 2.91668 96.95 3.50001L94.0334 9.56668L87.3834 10.5C87.0334 10.5 86.8 10.6167 86.6834 10.85C86.2167 11.3167 86.2167 12.0167 86.6834 12.4833L91.4667 17.15L90.3 23.8C90.3 24.0333 90.3 24.2667 90.4167 24.5C90.7667 25.0833 91.4667 25.3167 92.05 24.9667L98 21.8167L103.95 24.9667C104.067 25.0833 104.3 25.0833 104.533 25.0833H104.767C105.35 24.9667 105.817 24.3833 105.7 23.6833L104.533 17.0333L109.317 12.3667C109.55 12.25 109.667 12.0167 109.667 11.7833Z" fill="url(#paint3_linear_4002_41)"/>
<path d="M137.667 11.7833C137.783 11.2 137.317 10.5 136.733 10.5L130.083 9.56668L127.05 3.50001C126.933 3.26668 126.817 3.15001 126.583 3.03334C126 2.68334 125.3 2.91668 124.95 3.50001L122.033 9.56668L115.383 10.5C115.033 10.5 114.8 10.6167 114.683 10.85C114.217 11.3167 114.217 12.0167 114.683 12.4833L119.467 17.15L118.3 23.8C118.3 24.0333 118.3 24.2667 118.417 24.5C118.767 25.0833 119.467 25.3167 120.05 24.9667L126 21.8167L131.95 24.9667C132.067 25.0833 132.3 25.0833 132.533 25.0833H132.767C133.35 24.9667 133.817 24.3833 133.7 23.6833L132.533 17.0333L137.317 12.3667C137.55 12.25 137.667 12.0167 137.667 11.7833Z" fill="url(#paint4_linear_4002_41)"/>
<defs>
<linearGradient id="paint0_linear_4002_41" x1="2.33337" y1="14" x2="25.6847" y2="14" gradientUnits="userSpaceOnUse">
<stop stop-color="#EC6D0E"/>
<stop offset="1" stop-color="#FE9900"/>
</linearGradient>
<linearGradient id="paint1_linear_4002_41" x1="30.3334" y1="14" x2="53.6847" y2="14" gradientUnits="userSpaceOnUse">
<stop stop-color="#EC6D0E"/>
<stop offset="1" stop-color="#FE9900"/>
</linearGradient>
<linearGradient id="paint2_linear_4002_41" x1="58.3334" y1="14" x2="81.6847" y2="14" gradientUnits="userSpaceOnUse">
<stop stop-color="#EC6D0E"/>
<stop offset="1" stop-color="#FE9900"/>
</linearGradient>
<linearGradient id="paint3_linear_4002_41" x1="86.3334" y1="14" x2="109.685" y2="14" gradientUnits="userSpaceOnUse">
<stop stop-color="#EC6D0E"/>
<stop offset="1" stop-color="#FE9900"/>
</linearGradient>
<linearGradient id="paint4_linear_4002_41" x1="114.333" y1="14" x2="137.685" y2="14" gradientUnits="userSpaceOnUse">
<stop stop-color="#EC6D0E"/>
<stop offset="1" stop-color="#FE9900"/>
</linearGradient>
</defs>
</svg>
